<?xml version="1.0" encoding="utf-8"?>
<!-- Generator: Adobe Illustrator 28.0.0, SVG Export Plug-In . SVG Version: 6.00 Build 0)  -->
<svg version="1.1" id="Lager_1" xmlns="http://www.w3.org/2000/svg" xmlns:xlink="http://www.w3.org/1999/xlink" x="0px" y="0px"
	 viewBox="0 0 133.1 13" style="enable-background:new 0 0 133.1 13;" xml:space="preserve">
<style type="text/css">
	.st0{fill:url(#SVGID_1_);}
	.st1{opacity:0.6;fill:#D177B8;}
	.st2{fill:url(#SVGID_00000180335279939975585010000002183948446324913046_);}
</style>
<g>
	<g>
		
			<linearGradient id="SVGID_1_" gradientUnits="userSpaceOnUse" x1="80.5489" y1="-23.5465" x2="134.7094" y2="-23.5465" gradientTransform="matrix(0.999 4.450000e-02 -4.450000e-02 0.999 -2.2427 24.1175)">
			<stop  offset="0" style="stop-color:#B34349"/>
			<stop  offset="1" style="stop-color:#9C2740"/>
		</linearGradient>
		<path class="st0" d="M133.1,12.3c-0.4-0.4-3-2.5-12.7-3.7c-3.5-0.4-8.2-0.4-12.9-0.2c-9.9,0.5-20.1,1.9-20.1,1.9S82,8.4,79.3,2.9
			l1.1,0c0,0,2.4,3.5,5.3,5.4l-4-5.4c0,0,6.3,0.1,16.8-0.4c10.5-0.5,18.1-2.2,18.1-2.2L116.1,0c0,0,0.1,0,0.1,0
			C117.4,0.4,126.1,3.3,133.1,12.3z"/>
		<path class="st1" d="M133.1,12.3c-0.4-0.4-3-2.5-12.7-3.7c-3.5-0.4-8.2-0.4-12.9-0.2C122,6.5,124,6.7,124,6.7
			c-2.9-4.8-7-6.4-7.8-6.6C117.4,0.4,126.1,3.3,133.1,12.3z"/>
	</g>
	<g>
		
			<linearGradient id="SVGID_00000119822031465730828470000002491728492496922012_" gradientUnits="userSpaceOnUse" x1="-1166.9349" y1="50.639" x2="-1112.7734" y2="50.639" gradientTransform="matrix(-0.9976 6.890000e-02 6.890000e-02 0.9976 -1113.988 33.4027)">
			<stop  offset="0" style="stop-color:#B34349"/>
			<stop  offset="1" style="stop-color:#9C2740"/>
		</linearGradient>
		<path style="fill:url(#SVGID_00000119822031465730828470000002491728492496922012_);" d="M0,13c0.4-0.4,2.9-2.5,12.6-4
			c3.5-0.5,8.1-0.6,12.9-0.5c9.9,0.2,20.1,1.4,20.1,1.4s5.4-2.1,8-7.7l-1.1,0.1c0,0-2.3,3.6-5.2,5.6l3.9-5.5c0,0-6.2,0.3-16.8,0
			C23.9,2.2,16.2,0.6,16.2,0.6l0.5-0.4c0,0-0.1,0-0.1,0C15.4,0.7,6.8,3.8,0,13z"/>
		<path class="st1" d="M0,13c0.4-0.4,2.9-2.5,12.6-4c3.5-0.5,8.1-0.6,12.9-0.5C11,6.9,9,7.1,9,7.1c2.8-4.9,6.8-6.5,7.6-6.8
			C15.4,0.7,6.8,3.8,0,13z"/>
	</g>
</g>
</svg>
