<?xml version="1.0" encoding="utf-8"?>
<!-- Generator: Adobe Illustrator 28.0.0, SVG Export Plug-In . SVG Version: 6.00 Build 0)  -->
<svg version="1.1" id="Lager_1" xmlns="http://www.w3.org/2000/svg" xmlns:xlink="http://www.w3.org/1999/xlink" x="0px" y="0px"
	 viewBox="0 0 138.8 15.5" style="enable-background:new 0 0 138.8 15.5;" xml:space="preserve">
<style type="text/css">
	.st0{fill:url(#SVGID_1_);}
	.st1{opacity:0.6;fill:#D177B8;}
	.st2{fill:url(#SVGID_00000093179353764838471150000000599731332601542583_);}
</style>
<g>
	<g>
		<linearGradient id="SVGID_1_" gradientUnits="userSpaceOnUse" x1="84.6145" y1="7.76" x2="138.7745" y2="7.76">
			<stop  offset="0" style="stop-color:#B34349"/>
			<stop  offset="1" style="stop-color:#9C2740"/>
		</linearGradient>
		<path class="st0" d="M138.8,15.4c-0.4-0.5-3.1-3.1-12.8-4.1c-3.5-0.4-8.2,0-12.9,0.5c-9.9,1.2-20,3.7-20,3.7s-5.6-2.3-8.5-9.5h1.1
			c0,0,2.5,4.6,5.6,6.9L87,6.1c0,0,6.2-0.2,16.7-1.5c10.5-1.3,18-4,18-4L121.2,0c0,0,0.1,0,0.1,0C122.5,0.5,131.4,3.8,138.8,15.4z"
			/>
		<path class="st1" d="M138.8,15.4c-0.4-0.5-3.1-3.1-12.8-4.1c-3.5-0.4-8.2,0-12.9,0.5c14.4-3.5,16.3-3.4,16.3-3.4
			c-3.2-6.2-7.3-8.1-8-8.4C122.5,0.5,131.4,3.8,138.8,15.4z"/>
	</g>
	<g>
		
			<linearGradient id="SVGID_00000066486874188585949380000004974330025237511577_" gradientUnits="userSpaceOnUse" x1="-1163.1078" y1="7.76" x2="-1108.9478" y2="7.76" gradientTransform="matrix(-1 0 0 1 -1108.9478 0)">
			<stop  offset="0" style="stop-color:#B34349"/>
			<stop  offset="1" style="stop-color:#9C2740"/>
		</linearGradient>
		<path style="fill:url(#SVGID_00000066486874188585949380000004974330025237511577_);" d="M0,15.4c0.4-0.5,3.1-3.1,12.8-4.1
			c3.5-0.4,8.2,0,12.9,0.5c9.9,1.2,20,3.7,20,3.7s5.6-2.3,8.5-9.5h-1.1c0,0-2.5,4.6-5.5,6.9l4.2-6.9c0,0-6.2-0.2-16.7-1.5
			c-10.5-1.3-18-4-18-4L17.6,0c0,0-0.1,0-0.1,0C16.2,0.5,7.4,3.8,0,15.4z"/>
		<path class="st1" d="M0,15.4c0.4-0.5,3.1-3.1,12.8-4.1c3.5-0.4,8.2,0,12.9,0.5C11.3,8.4,9.4,8.4,9.4,8.4c3.2-6.2,7.2-8.1,8-8.4
			C16.2,0.5,7.4,3.8,0,15.4z"/>
	</g>
</g>
</svg>
