<?xml version="1.0" encoding="utf-8"?>
<!-- Generator: Adobe Illustrator 28.0.0, SVG Export Plug-In . SVG Version: 6.00 Build 0)  -->
<svg version="1.1" id="Lager_1" xmlns="http://www.w3.org/2000/svg" xmlns:xlink="http://www.w3.org/1999/xlink" x="0px" y="0px"
	 viewBox="0 0 131.4 12.8" style="enable-background:new 0 0 131.4 12.8;" xml:space="preserve">
<style type="text/css">
	.st0{fill:url(#SVGID_1_);}
	.st1{fill:url(#SVGID_00000060729537839087261050000004406530268468073606_);}
</style>
<g>
	<linearGradient id="SVGID_1_" gradientUnits="userSpaceOnUse" x1="80.8368" y1="6.388" x2="131.3951" y2="6.388">
		<stop  offset="0" style="stop-color:#5F1945"/>
		<stop  offset="1" style="stop-color:#5A365D"/>
	</linearGradient>
	<path class="st0" d="M80.8,8.3c0,0,1.7,3.7,5.7,4.5c0,0,24.2-7.9,31.2-7.5c7,0.4,13.7,7.5,13.7,7.5s-8.3-11.6-12.2-12.5
		C112.4-1.5,85,6.2,85,6.2s0.8,3.4,2,4.8c0,0-2.8-1.9-4.5-4.2L80.8,8.3z"/>
	
		<linearGradient id="SVGID_00000180359650515504175640000010961585959590595493_" gradientUnits="userSpaceOnUse" x1="-1341.0215" y1="6.388" x2="-1290.4631" y2="6.388" gradientTransform="matrix(-1 0 0 1 -1290.4631 0)">
		<stop  offset="0" style="stop-color:#5F1945"/>
		<stop  offset="1" style="stop-color:#5A365D"/>
	</linearGradient>
	<path style="fill:url(#SVGID_00000180359650515504175640000010961585959590595493_);" d="M50.6,8.3c0,0-1.7,3.7-5.7,4.5
		c0,0-24.2-7.9-31.2-7.5C6.7,5.6,0,12.8,0,12.8S8.3,1.2,12.2,0.2C19-1.5,46.4,6.2,46.4,6.2s-0.8,3.4-2,4.8c0,0,2.8-1.9,4.5-4.2
		L50.6,8.3z"/>
</g>
</svg>
