<?xml version="1.0" encoding="utf-8"?>
<!-- Generator: Adobe Illustrator 28.0.0, SVG Export Plug-In . SVG Version: 6.00 Build 0)  -->
<svg version="1.1" id="Lager_1" xmlns="http://www.w3.org/2000/svg" xmlns:xlink="http://www.w3.org/1999/xlink" x="0px" y="0px"
	 viewBox="0 0 42.2 23.8" style="enable-background:new 0 0 42.2 23.8;" xml:space="preserve">
<style type="text/css">
	.st0{opacity:0.6;fill:#D177B8;}
	.st1{fill:#BF336B;}
	.st2{fill:#A61A57;}
	.st3{fill:#681351;}
	.st4{fill:#FFD9FF;}
</style>
<g>
	<path class="st0" d="M4.4,10.8c0,0,5.9,13,16.7,13C31.9,23.8,37,12,37,12L4.4,10.8z"/>
	<path class="st1" d="M1.3,4.2c0,0,5.8,18.1,20.2,18.1c14.4,0,18.7-18.2,18.7-18.2s-12,2.3-15.1,3.7s-5.9,0-8.7-0.9
		C13.7,6,1.3,4.2,1.3,4.2z"/>
	<path class="st2" d="M2.2,4c0,0,2.7,0.2,7.6-2.2S18,0.1,21.5,0.1v7.7c0,0-7.2-1.6-9.6-1.7S5.7,5.6,2.2,4z"/>
	<path class="st2" d="M40.8,4c0,0-2.7,0.2-7.6-2.2C28.3-0.6,25,0.1,21.5,0.1v7.7c0,0,7.2-1.6,9.6-1.7C33.6,6.1,37.3,5.6,40.8,4z"/>
	<path class="st3" d="M40.2,4.1C35.2,6,32.9,5,28,6.3c-4.8,1.4-8.3,1.4-13.2,0s-8.3,0-13.2-2.6C1,3.4,0,2.6,0,2.6v1.2
		c0,0,6.7,2.2,11.5,2.5s6.6,3.4,9.9,3.4c3.3,0,5.1-3,9.9-3.4s10.9-2.5,10.9-2.5V2.6C42.2,2.6,40.9,3.9,40.2,4.1z"/>
	<polygon class="st4" points="31.8,6.9 35.3,7.9 32.9,10.9 30.8,8.9 	"/>
	<path class="st4" d="M29.8,10l1.3,1.6c0,0-1.1-0.8-2.2,0.5c-0.7,0.8-3.7,1.1-4.9,2.1l-0.9-1.7C23.1,12.6,26.7,12.8,29.8,10z"/>
</g>
</svg>
