<?xml version="1.0" encoding="utf-8"?>
<!-- Generator: Adobe Illustrator 28.0.0, SVG Export Plug-In . SVG Version: 6.00 Build 0)  -->
<svg version="1.1" id="Lager_1" xmlns="http://www.w3.org/2000/svg" xmlns:xlink="http://www.w3.org/1999/xlink" x="0px" y="0px"
	 viewBox="0 0 53.2 22.1" style="enable-background:new 0 0 53.2 22.1;" xml:space="preserve">
<style type="text/css">
	.st0{fill:#FF6563;}
	.st1{fill:#DC3F57;}
	.st2{fill:#842751;}
	.st3{opacity:0.6;fill:#D177B8;}
	.st4{fill:#FFFCB8;}
</style>
<g>
	<path class="st0" d="M2.8,11.6c0,0,7.5,6.9,23.1,6.9c15.6,0,24.3-6.6,24.3-6.6s-12-5.2-24.3-5.2C13.1,6.6,2.8,11.6,2.8,11.6z"/>
	<path class="st1" d="M5.2,10.5c0,0,7.2-10.5,21.4-10.5c11.4,0,23.6,11.8,23.6,11.8s-2.6-0.9-7.2-1.8c-4.6-0.9-13.7-3.7-19.4-3
		C18,7.5,10.2,10.5,5.2,10.5z"/>
	<path class="st2" d="M26.6,5.4C11.7,5.4,0,13.5,0,13.5s13.1-6.1,26.6-6.1c14,0,26.5,6,26.5,6S39.4,5.4,26.6,5.4z"/>
	<path class="st3" d="M8.3,9.2c0,0,3.4-8.7,17.8-8.7s19.1,9.1,19.1,9.1l5,2.2c0,0-11-11.8-24.1-11.8C12.7,0,5.2,10.5,5.2,10.5
		L8.3,9.2z"/>
	<path class="st3" d="M8.3,15.1c0,0,8,7,18.3,7c10.4,0,19.5-8,19.5-8s-9.5,4.3-20.3,4.3S8.3,15.1,8.3,15.1z"/>
	<polygon class="st4" points="33.1,10.2 35.4,14.1 37.6,13.5 34.7,10.2 	"/>
</g>
</svg>
