<?xml version="1.0" encoding="utf-8"?>
<!-- Generator: Adobe Illustrator 28.0.0, SVG Export Plug-In . SVG Version: 6.00 Build 0)  -->
<svg version="1.1" id="Lager_1" xmlns="http://www.w3.org/2000/svg" xmlns:xlink="http://www.w3.org/1999/xlink" x="0px" y="0px"
	 viewBox="0 0 66.6 35.2" style="enable-background:new 0 0 66.6 35.2;" xml:space="preserve">
<style type="text/css">
	.st0{opacity:0.6;fill:#D177B8;}
	.st1{fill:#FF6563;}
	.st2{fill:#DC3F57;}
	.st3{fill:#842751;}
	.st4{fill:#FFE0EE;}
	.st5{opacity:0.6;fill:url(#SVGID_1_);}
	.st6{fill:#DD6B7C;}
	.st7{fill:#FFFCB8;}
</style>
<g>
	<path class="st0" d="M14.3,24.2c0,0,10.1,10.9,17.7,10.9c9.7,0,19.9-11.3,19.9-11.3S32.2,39.9,14.3,24.2z"/>
	<path class="st1" d="M3.3,5c0,0,7.3,27.4,29.6,27.4c21.8,0,29.6-27.3,29.6-27.3L33.4,18.2L3.3,5z"/>
	<path class="st2" d="M33,10.3V5.8c0,0-5.9-1.2-13.3,0C12.3,7.1,3.3,3.5,3.3,3.5S17.1,10.9,33,10.3z"/>
	<path class="st3" d="M33,10.3C15.5,10.6,1.3,2.4,1.3,2.4S10.7,24.3,33,24.3c19.5,0,31.7-21.9,31.7-21.9S50.5,10.6,33,10.3z"/>
	<path class="st2" d="M33,10.3V5.8c0,0,5.9-1.2,13.3,0c7.4,1.2,16.4-2.3,16.4-2.3S48.9,10.9,33,10.3z"/>
	<path class="st4" d="M6.8,5l2.5,6.4C9.3,11.4,19.6,23,33,23c13.4,0,23.7-12.7,23.7-12.7L59.1,5c0,0-12.5,5.9-26.2,5.9
		C19.2,11,6.8,5,6.8,5z"/>
	
		<radialGradient id="SVGID_1_" cx="129.6149" cy="12.1516" r="20.9106" gradientTransform="matrix(0.8688 0 0 1 -79.728 0)" gradientUnits="userSpaceOnUse">
		<stop  offset="0" style="stop-color:#FFEADB"/>
		<stop  offset="0.9944" style="stop-color:#D177F4"/>
	</radialGradient>
	<path class="st5" d="M8,8c0,0,11.5,9.5,25,9.5C46.4,17.4,57.8,8,57.8,8l0.4-0.8c0,0-11.8,10-25.1,10C19.7,17.1,7.6,6.9,7.6,6.9L8,8
		z"/>
	<path class="st6" d="M61.1,1.2c0,0,3.4,1.6,5.5,6.3c0,0,0.7-5.7-1.4-7C63-0.9,61.1,1.2,61.1,1.2z"/>
	<path class="st6" d="M5.6,1.2c0,0-3.4,1.6-5.5,6.3c0,0-0.7-5.7,1.4-7C3.6-0.9,5.6,1.2,5.6,1.2z"/>
	<path class="st7" d="M42.3,23.9c0,0,1.6,1.3,2.4,2.9l1.2-1.3c0,0-1.1-1.8-2.7-2.6L42.3,23.9z"/>
	<path class="st7" d="M43.7,22.8c0,0,1.5,0.2,2.8,2.5l0.5-0.6c0,0-0.6-1.7-2.3-2.2L43.7,22.8z"/>
</g>
</svg>
