<?xml version="1.0" encoding="utf-8"?>
<!-- Generator: Adobe Illustrator 28.0.0, SVG Export Plug-In . SVG Version: 6.00 Build 0)  -->
<svg version="1.1" id="Lager_1" xmlns="http://www.w3.org/2000/svg" xmlns:xlink="http://www.w3.org/1999/xlink" x="0px" y="0px"
	 viewBox="0 0 42.6 31.3" style="enable-background:new 0 0 42.6 31.3;" xml:space="preserve">
<style type="text/css">
	.st0{opacity:0.6;fill:url(#SVGID_1_);enable-background:new    ;}
	.st1{fill:url(#SVGID_00000006670882217183590440000000475943050697619873_);}
	.st2{opacity:0.6;fill:url(#SVGID_00000136374875775176401300000012100885969175257255_);enable-background:new    ;}
	.st3{fill:url(#SVGID_00000152984754732145608710000006041001105605155229_);}
	.st4{fill:url(#SVGID_00000039839518009827523050000015881866060353401773_);}
	.st5{opacity:0.6;fill:url(#SVGID_00000157291740635569317820000007369011919277676700_);enable-background:new    ;}
	.st6{opacity:0.6;fill:url(#SVGID_00000182514183642609869010000014712687255027882884_);enable-background:new    ;}
	.st7{fill:#FFCEBE;}
	.st8{opacity:0.25;fill:url(#SVGID_00000149367037408560125850000010210399327290612357_);enable-background:new    ;}
</style>
<linearGradient id="SVGID_1_" gradientUnits="userSpaceOnUse" x1="21.4004" y1="22.0009" x2="21.4004" y2="-1.3313" gradientTransform="matrix(1 0 0 -1 0 31.89)">
	<stop  offset="0" style="stop-color:#FFE9DA"/>
	<stop  offset="1" style="stop-color:#CE5982"/>
</linearGradient>
<path class="st0" d="M41.3,22.3c-0.6,0.7-5.4,8.1-19.9,8.1S2.1,23,1.5,22.3c-0.4-0.5-0.1-0.9,4.1-1.2c4.1-0.3,8.9,1.3,9,1.5
	c2.4,1.7,10,2,13.7,0c0.1-0.2,4.9-1.7,9-1.5C41.4,21.4,41.7,21.9,41.3,22.3z"/>
<g>
	
		<linearGradient id="SVGID_00000127009997592177063970000007405701501576819355_" gradientUnits="userSpaceOnUse" x1="21.3138" y1="836.4674" x2="21.3138" y2="811.093" gradientTransform="matrix(1 0 0 1 0 -810)">
		<stop  offset="0" style="stop-color:#FF8881"/>
		<stop  offset="0.3383" style="stop-color:#F99287"/>
		<stop  offset="0.8097" style="stop-color:#F3A987;stop-opacity:0.6"/>
		<stop  offset="1" style="stop-color:#F2AD87;stop-opacity:0"/>
	</linearGradient>
	<path style="fill:url(#SVGID_00000127009997592177063970000007405701501576819355_);" d="M38.1,25.9c-4.3,0.7-5-1.1-8.7-1.1
		s-4.9,2.4-8.1,2.4s-4.5-2.4-8.1-2.4c-3.7,0-4.4,1.8-8.7,1.1c-3.8-0.7-5.6-9-3.9-14.2l0,0C0.9,11,1.1,10.5,1.4,10
		C4.2,5.1,15.6,0,21.3,0s17.2,5.1,20,10c0.4,0.8,0.8,1.7,1,2.6C43.5,17.8,41.7,25.2,38.1,25.9z"/>
	
		<linearGradient id="SVGID_00000024700127056719167820000000388434896030614697_" gradientUnits="userSpaceOnUse" x1="-4.265025e-02" y1="12.44" x2="42.5752" y2="12.44" gradientTransform="matrix(1 0 0 -1 0 31.89)">
		<stop  offset="0" style="stop-color:#FFE9DA"/>
		<stop  offset="1" style="stop-color:#CE5982"/>
	</linearGradient>
	<path style="opacity:0.6;fill:url(#SVGID_00000024700127056719167820000000388434896030614697_);enable-background:new    ;" d="
		M38.1,25.9c-4.3,0.7-5-1.1-8.7-1.1s-4.9,2.4-8.1,2.4s-4.5-2.4-8.1-2.4c-3.7,0-4.4,1.8-8.7,1.1c-3.8-0.7-5.6-9-3.9-14.2
		c-0.1,0.5-1.2,5.3,1.1,9.1c0.8,1.4,2.5,1.9,4,1.3c3.4-1.3,10.3-3.5,17.8-2.9c6.2,0.5,10.4,1.7,12.9,2.6c1.7,0.6,3.5-0.2,4.2-1.9
		c0.7-1.8,1.5-4.3,1.5-7.4C43.5,17.8,41.7,25.2,38.1,25.9z"/>
	
		<linearGradient id="SVGID_00000130609463309645218630000001533181141954692539_" gradientUnits="userSpaceOnUse" x1="5.4876" y1="834.9396" x2="14.9278" y2="834.9396" gradientTransform="matrix(1 0 0 1 0 -810)">
		<stop  offset="0" style="stop-color:#77254B"/>
		<stop  offset="1" style="stop-color:#8D2542"/>
	</linearGradient>
	<path style="fill:url(#SVGID_00000130609463309645218630000001533181141954692539_);" d="M6.1,26c-2.1-0.2,1-3.9,8.8-1.1
		C14.9,25,7.7,26.2,6.1,26z"/>
	
		<linearGradient id="SVGID_00000120519428194297864230000013081273847060158610_" gradientUnits="userSpaceOnUse" x1="-11761.0234" y1="835.0899" x2="-11751.6025" y2="835.0899" gradientTransform="matrix(-1 0 0 1 -11723.792 -810)">
		<stop  offset="0" style="stop-color:#77254B"/>
		<stop  offset="1" style="stop-color:#8D2542"/>
	</linearGradient>
	<path style="fill:url(#SVGID_00000120519428194297864230000013081273847060158610_);" d="M36.6,26c2.1-0.2-1.2-3.2-8.8-1.1
		C27.8,25,35,26.2,36.6,26z"/>
	
		<linearGradient id="SVGID_00000168088446655938808100000004746883565389536948_" gradientUnits="userSpaceOnUse" x1="5.7437" y1="821.0748" x2="5.7437" y2="815.9299" gradientTransform="matrix(1 0 0 1 0 -810)">
		<stop  offset="0" style="stop-color:#FFE9DA"/>
		<stop  offset="0.9944" style="stop-color:#D077F3"/>
	</linearGradient>
	<path style="opacity:0.6;fill:url(#SVGID_00000168088446655938808100000004746883565389536948_);enable-background:new    ;" d="
		M2.1,8.9C5,7.7,7.4,10.6,9,11.6c1.5,1-1.6-3.5-5.1-4.5L2.1,8.9z"/>
	
		<linearGradient id="SVGID_00000155123914827196976910000001500301524042895759_" gradientUnits="userSpaceOnUse" x1="36.9066" y1="821.0748" x2="36.9066" y2="815.9299" gradientTransform="matrix(1 0 0 1 0 -810)">
		<stop  offset="0" style="stop-color:#FFE9DA"/>
		<stop  offset="0.9944" style="stop-color:#D077F3"/>
	</linearGradient>
	<path style="opacity:0.6;fill:url(#SVGID_00000155123914827196976910000001500301524042895759_);enable-background:new    ;" d="
		M40.5,8.9c-2.9-1.2-5.3,1.7-6.8,2.8c-1.5,1,1.6-3.5,5.2-4.5L40.5,8.9z"/>
	<path class="st7" d="M25.4,13.6c-0.3,0.7-0.9,2.9,0.8,3.1c1.7,0.2,3.5-1,3.7-1.6c0.2-0.5-0.1-2.1-1.4-2.3S25.9,12.4,25.4,13.6z"/>
</g>
<linearGradient id="SVGID_00000099660223510292646660000000604890368906539683_" gradientUnits="userSpaceOnUse" x1="21.0354" y1="12.9069" x2="21.0354" y2="31.8002" gradientTransform="matrix(1 0 0 -1 0 31.89)">
	<stop  offset="0" style="stop-color:#FFB39D;stop-opacity:0.5"/>
	<stop  offset="0.2251" style="stop-color:#FF9B8E;stop-opacity:0.5"/>
	<stop  offset="0.4833" style="stop-color:#FF8781"/>
	<stop  offset="0.742" style="stop-color:#FF7B7A"/>
	<stop  offset="1" style="stop-color:#FF7777;stop-opacity:0.6"/>
</linearGradient>
<path style="opacity:0.25;fill:url(#SVGID_00000099660223510292646660000000604890368906539683_);enable-background:new    ;" d="
	M29.2,18.3c0-0.7,2.4-18.7-8.3-18.2s-7.9,17.2-8,18.2C12.8,19.4,29.2,19,29.2,18.3z"/>
</svg>
