<?xml version="1.0" encoding="utf-8"?>
<!-- Generator: Adobe Illustrator 28.0.0, SVG Export Plug-In . SVG Version: 6.00 Build 0)  -->
<svg version="1.1" id="Lager_1" xmlns="http://www.w3.org/2000/svg" xmlns:xlink="http://www.w3.org/1999/xlink" x="0px" y="0px"
	 viewBox="0 0 46.7 39.8" style="enable-background:new 0 0 46.7 39.8;" xml:space="preserve">
<style type="text/css">
	.st0{fill:url(#SVGID_1_);}
	.st1{opacity:0.6;fill:#D177B8;enable-background:new    ;}
	.st2{opacity:0.6;fill:url(#SVGID_00000041259819232838235820000015274022050256940478_);enable-background:new    ;}
	.st3{fill:url(#SVGID_00000127761889369896922630000016659083137980860034_);}
	.st4{fill:url(#SVGID_00000018933761644128994650000017609434423100240512_);}
	.st5{opacity:0.25;fill:url(#SVGID_00000013168223701446017220000017205609792239441551_);enable-background:new    ;}
	.st6{opacity:0.6;fill:url(#SVGID_00000019673204218530526810000010587024668999050639_);enable-background:new    ;}
	.st7{opacity:0.6;fill:url(#SVGID_00000008867815189133870510000016566414478828477084_);enable-background:new    ;}
	.st8{fill:#FFCCB8;}
	.st9{fill:#FFFFFF;}
</style>
<g>
	
		<linearGradient id="SVGID_1_" gradientUnits="userSpaceOnUse" x1="23.3" y1="-71.3496" x2="23.3" y2="230.2783" gradientTransform="matrix(1 0 0 -1 0 39.89)">
		<stop  offset="0.2552" style="stop-color:#FF9673"/>
		<stop  offset="0.3026" style="stop-color:#FA9F82;stop-opacity:0.7247"/>
		<stop  offset="0.3723" style="stop-color:#F4A992;stop-opacity:0.3198"/>
		<stop  offset="0.4273" style="stop-color:#F2AD97;stop-opacity:0"/>
	</linearGradient>
	<path class="st0" d="M43.6,11.9c0,0-11.5-11.3-19.4-11.9c-0.2,0-1.7,0-1.9,0C14.6,0.5,3,11.9,3,11.9s-5.6,9.4-1.5,13.4
		c4.1,3.9,14.6,6.1,14.6,6.1s4.1,2.1,7.4,2.1s7-2.1,7-2.1s10.5-2.2,14.6-6.1C49.2,21.3,43.6,11.9,43.6,11.9z"/>
	<path class="st1" d="M45.1,25.2c-4.1,3.9-14.6,6.1-14.6,6.1s-3.8,2.1-7,2.1c-3.3,0-7.4-2.1-7.4-2.1S5.6,29.1,1.5,25.2
		c-1.4-1.3-1.7-3.3-1.4-5.3c1.8,2.8,3.5,3.6,10.9,3.6c1.1,0,1.8,3.2,4.6,4.8c2.5,1.5,6,1.5,7.7,1.6c1.7,0,5.1-0.1,7.7-1.6
		c2.8-1.6,3.5-4.8,4.6-4.8c7.5,0,9.1-0.9,11-3.7C46.8,21.9,46.5,23.9,45.1,25.2z"/>
	
		<linearGradient id="SVGID_00000153673799846543357440000004768584349032512171_" gradientUnits="userSpaceOnUse" x1="23.4174" y1="23.121" x2="22.9524" y2="-10.0128" gradientTransform="matrix(1 0 0 -1 0 39.89)">
		<stop  offset="0" style="stop-color:#FFE9DA"/>
		<stop  offset="1" style="stop-color:#CE5982"/>
	</linearGradient>
	<path style="opacity:0.6;fill:url(#SVGID_00000153673799846543357440000004768584349032512171_);enable-background:new    ;" d="
		M23.5,39.8c-10.5,0-22.2-14.2-22.6-15c-2.6-5.1,1.2-11.3,2.1-13C1.2,17.6,1.9,22,2.4,22.2c1.6,0.9,4,1.3,8.6,1.3
		c1.1,0,1.8,3.2,4.6,4.8c2.5,1.5,6,1.5,7.7,1.6c1.7,0,5.1-0.1,7.7-1.6c2.8-1.6,3.5-4.8,4.6-4.8c5.4,0,7.7-0.4,9.3-1.7
		c1-0.8,0.6-6.1-1.2-9.9c1.3,2.3,4.4,8.8,2.3,12.2C41,32.4,32.5,39.8,23.5,39.8z"/>
	<g>
		
			<linearGradient id="SVGID_00000097489504637639566170000011190974688293965990_" gradientUnits="userSpaceOnUse" x1="4.2918" y1="11.602" x2="15.605" y2="11.602" gradientTransform="matrix(1 0 0 -1 0 39.89)">
			<stop  offset="0" style="stop-color:#77254B"/>
			<stop  offset="1" style="stop-color:#8B2542"/>
		</linearGradient>
		<path style="fill:url(#SVGID_00000097489504637639566170000011190974688293965990_);" d="M15.6,31.2c-1.5-0.3-6-1.4-9.7-3.2
			c-0.7-0.3-3.1-2.9,0-2.6C9.4,25.8,13.8,29.9,15.6,31.2z"/>
	</g>
	<g>
		
			<linearGradient id="SVGID_00000084517763268652525230000002819494394783466625_" gradientUnits="userSpaceOnUse" x1="-5803.0493" y1="11.602" x2="-5791.7358" y2="11.602" gradientTransform="matrix(-1 0 0 -1 -5760.6851 39.89)">
			<stop  offset="0" style="stop-color:#77254B"/>
			<stop  offset="1" style="stop-color:#8B2542"/>
		</linearGradient>
		<path style="fill:url(#SVGID_00000084517763268652525230000002819494394783466625_);" d="M31.1,31.2c1.5-0.3,6-1.4,9.7-3.2
			c0.7-0.3,3.1-2.9,0-2.6C37.2,25.8,32.8,29.9,31.1,31.2z"/>
	</g>
	
		<linearGradient id="SVGID_00000103974489968153209830000011533484682075153033_" gradientUnits="userSpaceOnUse" x1="12.461" y1="20.3324" x2="34.146" y2="20.3324" gradientTransform="matrix(1 0 0 -1 0 39.89)">
		<stop  offset="0" style="stop-color:#FFB39D"/>
		<stop  offset="0.2251" style="stop-color:#FF9B8E"/>
		<stop  offset="0.4833" style="stop-color:#FF8781"/>
		<stop  offset="0.742" style="stop-color:#FF7B7A"/>
		<stop  offset="1" style="stop-color:#FF7777"/>
	</linearGradient>
	<path style="opacity:0.25;fill:url(#SVGID_00000103974489968153209830000011533484682075153033_);enable-background:new    ;" d="
		M22,10.1c-4.7,0.4-9.9,13.3-9.6,14.3c0.3,1,5.9,4.2,10.9,4.6c3.9,0.4,10.6-4.3,10.8-5C34.5,23,26.8,9.7,22,10.1z"/>
	
		<linearGradient id="SVGID_00000022546690320509148970000002566674742523391668_" gradientUnits="userSpaceOnUse" x1="11.5812" y1="29.5975" x2="9.7095" y2="0.3829" gradientTransform="matrix(1 0 0 -1 0 39.89)">
		<stop  offset="0" style="stop-color:#FFE9DA"/>
		<stop  offset="1" style="stop-color:#CE5982"/>
	</linearGradient>
	<path style="opacity:0.6;fill:url(#SVGID_00000022546690320509148970000002566674742523391668_);enable-background:new    ;" d="
		M14.8,11.9c-0.8,5.7-3,12.2-3,12.2s-0.3-0.5-0.6-0.6c-0.2,0-1.2,0-2.2,0c-0.9,0-1.7-0.1-1.7-0.1s8.9-5.5,7.6-20.6
		C15.1,4.6,15.4,8.1,14.8,11.9z"/>
	
		<linearGradient id="SVGID_00000093150591125101730390000018307962460140232104_" gradientUnits="userSpaceOnUse" x1="35.485" y1="28.117" x2="33.6147" y2="-1.0758" gradientTransform="matrix(1 0 0 -1 0 39.89)">
		<stop  offset="0" style="stop-color:#FFE9DA"/>
		<stop  offset="1" style="stop-color:#CE5982"/>
	</linearGradient>
	<path style="opacity:0.6;fill:url(#SVGID_00000093150591125101730390000018307962460140232104_);enable-background:new    ;" d="
		M31.7,11.9c0.8,5.7,3,12.2,3,12.2s0.3-0.5,0.6-0.6c0.2,0,1.2,0,2.2,0c0.9,0,1.7-0.1,1.7-0.1S31,16.7,31.6,2.8
		C31.5,4.6,31.2,8.1,31.7,11.9z"/>
	<path class="st8" d="M13.4,24.2c0,0,4.9,2.6,7.7,2.7s11.9-2.3,11.8-2.3S13.4,24.2,13.4,24.2z"/>
	<path class="st9" d="M17.3,23.9c0,0.4,1.4,2.8,1.4,2.8l4.4-0.3c0,0,1.8-1.9,1.3-1.9C23.9,24.4,17.3,23.9,17.3,23.9z"/>
</g>
</svg>
