<?xml version="1.0" encoding="utf-8"?>
<!-- Generator: Adobe Illustrator 28.0.0, SVG Export Plug-In . SVG Version: 6.00 Build 0)  -->
<svg version="1.1" id="Lager_1" xmlns="http://www.w3.org/2000/svg" xmlns:xlink="http://www.w3.org/1999/xlink" x="0px" y="0px"
	 viewBox="0 0 91.2 111.4" style="enable-background:new 0 0 91.2 111.4;" xml:space="preserve">
<style type="text/css">
	.st0{fill:url(#SVGID_1_);}
	.st1{opacity:0.6;fill:#D177B8;}
	.st2{fill:url(#SVGID_00000148635811197738082950000014635960780849841819_);}
	.st3{opacity:0.6;fill:url(#SVGID_00000113337945536970354560000016064329360417248916_);}
	.st4{opacity:0.6;fill:url(#SVGID_00000058582177868838735290000017925132478541310343_);}
	.st5{fill:url(#SVGID_00000036951571315442838690000001511752938266923136_);}
	.st6{opacity:0.6;fill:url(#SVGID_00000089551258782269038610000002427461399214924939_);}
	.st7{opacity:0.6;fill:url(#SVGID_00000083057374245513714670000014159409236374626956_);}
	.st8{fill:#DD6B7C;}
	.st9{fill:url(#SVGID_00000121992339133919600220000003945644895239694208_);}
	.st10{opacity:0.6;fill:url(#SVGID_00000024721853373415308640000008590638590194782901_);}
	.st11{opacity:0.6;fill:url(#SVGID_00000060741867671066247850000003511184598512463502_);}
	.st12{fill:url(#SVGID_00000116954528104220693020000006765196877307248298_);}
	.st13{fill:url(#SVGID_00000041288335809381531980000012212897821871973548_);}
	.st14{fill:url(#SVGID_00000025413365696822600280000014791191249334460042_);}
	.st15{fill:url(#SVGID_00000015341206716266930160000008279312796783748543_);}
	.st16{fill:url(#SVGID_00000093173569258926229510000007565722163610407352_);}
	.st17{fill:url(#SVGID_00000132796768251609077830000002621767417535527572_);}
	.st18{fill:url(#SVGID_00000091006620920864041190000018118378451658035899_);}
	.st19{fill:#FFD9BB;}
</style>
<g>
	<g>
		<g>
			<linearGradient id="SVGID_1_" gradientUnits="userSpaceOnUse" x1="45.2759" y1="111.4113" x2="45.2759" y2="84.496">
				<stop  offset="0" style="stop-color:#FFB39D"/>
				<stop  offset="0.2251" style="stop-color:#FF9B8E"/>
				<stop  offset="0.4833" style="stop-color:#FF8781"/>
				<stop  offset="0.742" style="stop-color:#FF7B7A"/>
				<stop  offset="1" style="stop-color:#FF7777"/>
			</linearGradient>
			<path class="st0" d="M57.2,102.2c-0.4-2.8,0-17.7,0-17.7l-11.9,0.8l-11.9-0.8c0,0,0.4,14.9,0,17.7c0,0-6.7,7.2-18.2,9.2h30.1
				h30.1C63.9,109.4,57.2,102.2,57.2,102.2z"/>
			<path class="st1" d="M33.5,92.9c0,0,10.4,9,23.5,5.2l0.2-13.7c0,0-6.9,4.9-23.8,0.7L33.5,92.9z"/>
			
				<linearGradient id="SVGID_00000047770735767165433660000010477782018125439120_" gradientUnits="userSpaceOnUse" x1="45.1355" y1="111.4134" x2="45.1355" y2="101.522">
				<stop  offset="0" style="stop-color:#FFAED8"/>
				<stop  offset="1" style="stop-color:#FFC5E0"/>
			</linearGradient>
			<path style="fill:url(#SVGID_00000047770735767165433660000010477782018125439120_);" d="M77,111.4H13.2c0,0,11.1-3.5,13.1-5.3
				c0.5-0.4,0.9-0.9,1.4-1.4c0.7-0.8,1.3-1.7,1.7-2.3l0,0c0.3-0.5,0.5-0.8,0.6-0.8c0.2-0.1,3.1,0.6,3.3,0.7l0,0l-1.5,1.4
				c0,0,3.4,5.2,13.4,5.2c6.7,0,10.3-2.4,11.9-4v0c0.8-0.8,1.2-1.4,1.2-1.4l-1.2-1.1l3.4-0.7c0,0,0.1,0.8,0.6,1.8
				c0.2,0.6,0.6,1.2,1,1.8c0.4,0.5,0.8,1,1.4,1.4C65.9,108.1,77,111.4,77,111.4z"/>
			<path class="st1" d="M60.6,101.5l-3.4,3.2v0c0.8-0.8,1.2-1.4,1.2-1.4l-1.2-1.1L60.6,101.5z"/>
			<path class="st1" d="M33.4,102.2l-1.5,1.4l-1.8-2.1C30.2,101.5,33.2,102.2,33.4,102.2L33.4,102.2z"/>
			
				<linearGradient id="SVGID_00000074404728337256158740000009492124144838043324_" gradientUnits="userSpaceOnUse" x1="27.6727" y1="106.884" x2="41.101" y2="106.884">
				<stop  offset="5.586590e-03" style="stop-color:#D177F4"/>
				<stop  offset="1" style="stop-color:#FFEADB"/>
			</linearGradient>
			<path style="opacity:0.6;fill:url(#SVGID_00000074404728337256158740000009492124144838043324_);" d="M29.4,102.4
				c0,0-0.3,3,3.9,6.3c3.2,2.5,7.7,2.8,7.7,2.8s-8-0.2-13.4-6.7L29.4,102.4z"/>
			
				<linearGradient id="SVGID_00000152967444765172305310000011240893160108807314_" gradientUnits="userSpaceOnUse" x1="53.6025" y1="106.828" x2="62.142" y2="106.828">
				<stop  offset="0" style="stop-color:#FFEADB"/>
				<stop  offset="0.9944" style="stop-color:#D177F4"/>
			</linearGradient>
			<path style="opacity:0.6;fill:url(#SVGID_00000152967444765172305310000011240893160108807314_);" d="M61.1,103.3
				c0,0-2.4,5-7.5,7.1c0,0,6.5-1.3,8.5-5.3L61.1,103.3z"/>
		</g>
		<g>
			<g>
				
					<linearGradient id="SVGID_00000067924181507655654420000011099653812928724896_" gradientUnits="userSpaceOnUse" x1="78.9875" y1="67.0018" x2="78.9875" y2="43.5133">
					<stop  offset="0" style="stop-color:#FFB39D"/>
					<stop  offset="0.2251" style="stop-color:#FF9B8E"/>
					<stop  offset="0.4833" style="stop-color:#FF8781"/>
					<stop  offset="0.742" style="stop-color:#FF7B7A"/>
					<stop  offset="1" style="stop-color:#FF7777"/>
				</linearGradient>
				<path style="fill:url(#SVGID_00000067924181507655654420000011099653812928724896_);" d="M84.4,54.3c-0.2,0.8-0.3,1.5-0.5,2.1
					c0,0,0,0,0,0c-1.4,4.4-3.4,5.4-4.3,7.4c-0.7,1.7-3.6,5.2-6.4,1.6c0,0,0,0,0,0s1.3-14.6,2.4-17.2c0,0,1.6-4,4.3-4.6
					C83.5,42.8,85.8,47.5,84.4,54.3z"/>
				
					<linearGradient id="SVGID_00000020364315478788695990000012445139541660755593_" gradientUnits="userSpaceOnUse" x1="78.9935" y1="62.9808" x2="78.9935" y2="47.667">
					<stop  offset="0" style="stop-color:#FFEADB"/>
					<stop  offset="0.9944" style="stop-color:#D177F4"/>
				</linearGradient>
				<path style="opacity:0.6;fill:url(#SVGID_00000020364315478788695990000012445139541660755593_);" d="M74.2,56.4
					c0,0,5.6-8.1,8.3-8.7c2.7-0.5,1.3,6.4,0.8,8.7c-0.5,2.3-1.3,3.7-1.3,3.7s0.7-2.7,0.8-4.9c0.2-3.2-0.8-5.9-1.9-5.6
					c-1.1,0.3-2.6,4.2-2.7,4.7c-0.1,0.5,0.7,1.3,0.7,3.7c0,2.5-1.2,5.1-1.9,5.1c-0.6,0-0.4-2-0.4-4.3c0-2.3-1.8-1.8-2.6-0.4
					L74.2,56.4z"/>
				
					<linearGradient id="SVGID_00000039849857309066078320000005857447034709130889_" gradientUnits="userSpaceOnUse" x1="76.2306" y1="61.2218" x2="76.2306" y2="53.7148">
					<stop  offset="0" style="stop-color:#FFEADB"/>
					<stop  offset="0.9944" style="stop-color:#D177F4"/>
				</linearGradient>
				<path style="opacity:0.6;fill:url(#SVGID_00000039849857309066078320000005857447034709130889_);" d="M73.9,58.3
					c0,0,1.4-2.2,2.3-1.2c0.9,1,0.2,3.7,0.9,4.1c0.7,0.3,1.6-1.9,1.4-3.9c-0.2-2-1-3.9-2.1-3.5l-2.2,2.6L73.9,58.3z"/>
				<path class="st8" d="M83.8,56.4c-1.4,4.4-3.4,5.4-4.3,7.4c-0.7,1.7-3.6,5.2-6.4,1.6c0.2,0.1,1.8,1.5,3.4,0.9
					c1.7-0.6,2.3-2.3,3-3.5C80.4,61.5,82.3,60.7,83.8,56.4z"/>
			</g>
			<g>
				
					<linearGradient id="SVGID_00000068658277789365602780000004879530038546589063_" gradientUnits="userSpaceOnUse" x1="-512.8358" y1="67.0018" x2="-512.8358" y2="43.5133" gradientTransform="matrix(-1 0 0 1 -502.37 0)">
					<stop  offset="0" style="stop-color:#FFB39D"/>
					<stop  offset="0.2251" style="stop-color:#FF9B8E"/>
					<stop  offset="0.4833" style="stop-color:#FF8781"/>
					<stop  offset="0.742" style="stop-color:#FF7B7A"/>
					<stop  offset="1" style="stop-color:#FF7777"/>
				</linearGradient>
				<path style="fill:url(#SVGID_00000068658277789365602780000004879530038546589063_);" d="M5.1,54.3c0.2,0.8,0.3,1.5,0.5,2.1
					c0,0,0,0,0,0c1.4,4.4,3.4,5.4,4.3,7.4c0.7,1.7,3.6,5.2,6.4,1.6c0,0,0,0,0,0s-1.3-14.6-2.4-17.2c0,0-1.6-4-4.3-4.6
					C5.9,42.8,3.7,47.5,5.1,54.3z"/>
				
					<linearGradient id="SVGID_00000168086655187565580180000010401972271163770520_" gradientUnits="userSpaceOnUse" x1="-512.8298" y1="62.9808" x2="-512.8298" y2="47.667" gradientTransform="matrix(-1 0 0 1 -502.37 0)">
					<stop  offset="0" style="stop-color:#FFEADB"/>
					<stop  offset="0.9944" style="stop-color:#D177F4"/>
				</linearGradient>
				<path style="opacity:0.6;fill:url(#SVGID_00000168086655187565580180000010401972271163770520_);" d="M15.3,56.4
					c0,0-5.6-8.1-8.3-8.7c-2.7-0.5-1.3,6.4-0.8,8.7C6.7,58.7,7.6,60,7.6,60s-0.7-2.7-0.8-4.9c-0.2-3.2,0.8-5.9,1.9-5.6
					c1.1,0.3,2.6,4.2,2.7,4.7c0.1,0.5-0.7,1.3-0.7,3.7c0,2.5,1.2,5.1,1.9,5.1c0.6,0,0.4-2,0.4-4.3c0-2.3,1.8-1.8,2.6-0.4L15.3,56.4z
					"/>
				
					<linearGradient id="SVGID_00000063631722274296784430000012642471419020900281_" gradientUnits="userSpaceOnUse" x1="-515.5927" y1="61.2218" x2="-515.5927" y2="53.7148" gradientTransform="matrix(-1 0 0 1 -502.37 0)">
					<stop  offset="0" style="stop-color:#FFEADB"/>
					<stop  offset="0.9944" style="stop-color:#D177F4"/>
				</linearGradient>
				<path style="opacity:0.6;fill:url(#SVGID_00000063631722274296784430000012642471419020900281_);" d="M15.5,58.3
					c0,0-1.4-2.2-2.3-1.2c-0.9,1-0.2,3.7-0.9,4.1c-0.7,0.3-1.6-1.9-1.4-3.9c0.2-2,1-3.9,2.1-3.5l2.2,2.6L15.5,58.3z"/>
				<path class="st8" d="M5.6,56.4c1.4,4.4,3.4,5.4,4.3,7.4c0.7,1.7,3.6,5.2,6.4,1.6c-0.2,0.1-1.8,1.5-3.4,0.9
					c-1.7-0.6-2.3-2.3-3-3.5C9.1,61.5,7.2,60.7,5.6,56.4z"/>
			</g>
			
				<linearGradient id="SVGID_00000005980549281024924100000003938096506526453939_" gradientUnits="userSpaceOnUse" x1="44.7161" y1="87.6685" x2="44.7161" y2="10.0093">
				<stop  offset="0" style="stop-color:#FFAA96"/>
				<stop  offset="0.4274" style="stop-color:#F9AB99"/>
				<stop  offset="0.5507" style="stop-color:#FBA38F"/>
				<stop  offset="0.7754" style="stop-color:#FE9983"/>
				<stop  offset="1" style="stop-color:#FF967F"/>
			</linearGradient>
			<path style="fill:url(#SVGID_00000005980549281024924100000003938096506526453939_);" d="M74.5,60.2c0,0.1,0,0.2-0.1,0.4
				c-0.7,3.9-1.5,7.2-2.1,9.2c-2.4,7.7-14.9,17.9-27.6,17.9c-12.7,0-25.1-10.1-27.6-17.9c-0.3-0.9-0.6-2.1-0.9-3.5
				c-1.1-4.9-2.4-12.4-3.2-19.7c0,0,0,0,0,0c-0.9-8.3-1-16.4,0.5-20.3c1.1-2.7,3.7-5.9,7.5-8.7v0c5.7-4.2,14-7.5,23.7-7.5
				c16.3,0,28.6,9.5,31.2,16.2C78.3,32.3,76.5,48.8,74.5,60.2z"/>
			<path class="st1" d="M74.4,60.6c-0.7,3.9-1.5,7.2-2.1,9.2c-2.4,7.7-14.9,17.9-27.6,17.9c-12.7,0-25.1-10.1-27.6-17.9
				c-0.3-0.9-0.6-2.1-0.9-3.5l0-0.9c0,0,0.5,4.6,4.3,9.7c3.9,5.1,14.2,11.3,24.1,11.3c10,0,20.7-7.5,24.3-11.8
				C72.2,70.8,74,62.6,74.4,60.6z"/>
		</g>
	</g>
	<g>
		
			<linearGradient id="SVGID_00000042702098666678916660000008191765817929832606_" gradientUnits="userSpaceOnUse" x1="45.7302" y1="91.3511" x2="45.7302" y2="-9.094947e-13">
			<stop  offset="0" style="stop-color:#C7544B"/>
			<stop  offset="1" style="stop-color:#B63651"/>
		</linearGradient>
		<path style="fill:url(#SVGID_00000042702098666678916660000008191765817929832606_);" d="M88.3,55.7
			C88.3,55.6,88.3,55.6,88.3,55.7c-0.6-2-1.2-3.9-1.8-5.8c-0.6-2-1.1-4.1-1.4-6.1c-0.3-2-0.5-3.6-0.7-5.2v0
			c-0.8-5.8-1.1-8.9-2.5-13.9c-1.7-6.3-15.4-10.3-17.8-11.9C57.8,8.7,54.4,0.9,44.5,0.1S29.4,7,19.1,15.2c0,0,0,0,0,0l-1.7,1.3
			c0,0,0,0,0,0c-9,7.1-11.1,8.9-13.5,14.6c-2.5,6.1,0,14.7-2,23.8c-0.8,3.6-1.4,7.7-1.6,11.6c-0.1,2.5-0.1,4.9,0.2,7.1
			c0.4,3,1.3,5.7,2.8,7.6c1.7,2.2,3.8,3.7,5.8,4.7c0.5,0.7,1,1.4,1.6,2c0,0,0.8,0.4,2.2,1c0,0,0.1,0,0.1,0l0,0
			c0.5,0.2,1.2,0.4,1.9,0.7l0,0c1.6,0.5,3.6,1,5.9,1.4c0,0,0,0,0,0l0.1,0c0.8,0.1,1.7,0.2,2.6,0.3h0c0,0,0,0,0,0c0,0,0,0,0,0
			c1.3,0.1,2.6,0.1,4,0c0,0-10.4-12.2-11.5-30.3c0.1,0.8,2.1,14.2,5.4,19c-0.1-0.2-1.3-5.9-2-13.7c0,0,0,0,0,0
			c-0.4-4.4-0.7-9.6-0.4-14.8c0.7-14.5,8.3-30.9,14-35c5.7-4.1,20.4-4.6,25.2-1L58,14l1.5,1.2l0.2,0.1l0.4-0.4l1.7,0.9L61,16.6
			c0,0,1.5,1.4,3.5,3.7c0,0,0,0,0,0c2.9,3.5,6.9,9,8.6,15.2c2.8,10.3-0.3,41.7-3.2,51.7c0,0,4.1-5.3,5.9-10.9
			c-0.9,3.5-2.8,9-6.3,13.7c0,0,3.9,1,8.5-1.5c3.4-1.9,7.2-6.7,9.5-10.9c-0.2,0.4-2.9,6.2-6.6,9.5c0,0,0,0,0,0c0,0,0,0,0,0
			c-0.5,0.5-1,0.8-1.5,1.2c0.3-0.2,10.7-5.1,11.7-15.4C91.6,66.9,90,61.2,88.3,55.7z M5,75.4c-0.7-3.8-0.5-8.6,1.2-14.8
			c-0.1,0.5-2.2,11.1,0.4,19.8C5.9,78.9,5.4,77.3,5,75.4z"/>
		
			<linearGradient id="SVGID_00000026151640620478654860000018058356446537241488_" gradientUnits="userSpaceOnUse" x1="30.029" y1="91.269" x2="30.029" y2="1.8627">
			<stop  offset="0" style="stop-color:#FFEADB"/>
			<stop  offset="0.9944" style="stop-color:#D177F4"/>
		</linearGradient>
		<path style="fill:url(#SVGID_00000026151640620478654860000018058356446537241488_);" d="M59.5,15.2L58,14l0.3,1.5
			c-4.9-3.6-19.5-3.1-25.2,1c-5.7,4.1-13.3,20.5-14,35c-0.2,5.2,0,10.3,0.4,14.8c-2.5-17.6,1-31.7,1-31.7s-4.3,13.5-5.4,30.4
			C14,81.8,23.4,91,23.6,91.3c0,0,0,0,0,0l0,0h0L21,91L21,91h0c0,0,0,0,0,0c-0.2-0.1-6.3-4.7-6.9-18c-0.5-13.2,3.9-30.6,4.2-31.5
			c-0.3,0.8-4.5,13-6.5,27.9c-1.3,9.6,0.4,15.2,1.8,18c0.1,0.1,0.1,0.2,0.2,0.3c0.7,1.3,1.3,1.9,1.4,2L13.1,89l0,0c0,0,0,0-0.1,0
			c-0.2-0.1-1-0.5-1.7-2c-0.2-0.4-0.4-0.8-0.5-1.3c-0.8-2.5-1.2-6.9,0-14.5c2.5-16.2,8.7-38.3,8.7-38.3S10,45.8,6.3,60.5
			c0,0,0,0,0,0C4.6,67.2,4.6,72,5,75.4c0.5,3.9,1.8,5.8,1.9,5.9c0,0,0,0,0,0c-0.2-0.1-4.7-2.5-6.3-7.6c-0.6-1.9-0.8-4.2-0.3-6.8
			c0-0.1,0-0.2,0.1-0.3C2.6,56.4,14.2,38.9,21,28.1C27.7,17.4,32.9,9.2,33,9c-6.2,3.7-15.3,7.5-15.6,7.6l1.7-1.3c0,0,0,0,0,0
			c0.1-0.1,2.3-0.9,8-3.8c5.8-3,16.7-11.8,22.8-9C56,5.2,60.1,14.9,60.1,14.9L59.5,15.2z"/>
		
			<linearGradient id="SVGID_00000121959089738392684500000003322120479216454533_" gradientUnits="userSpaceOnUse" x1="77.8148" y1="90.2415" x2="77.8148" y2="20.2714">
			<stop  offset="5.586590e-03" style="stop-color:#D177F4"/>
			<stop  offset="1" style="stop-color:#FFEADB"/>
		</linearGradient>
		<path style="fill:url(#SVGID_00000121959089738392684500000003322120479216454533_);" d="M91,72.9c-1,10.3-11.4,15.3-11.7,15.4
			c0.5-0.3,1-0.7,1.5-1.2c0,0,0,0,0,0c0,0,0,0,0,0c3.7-3.3,6.4-9.1,6.6-9.5c-2.4,4.2-6.2,8.9-9.5,10.9c-4.5,2.6-8.5,1.5-8.5,1.5
			c3.5-4.7,5.4-10.2,6.3-13.7c-1.8,5.6-5.9,10.9-5.9,10.9c2.8-10,5.9-41.4,3.2-51.7c-1.7-6.2-5.6-11.7-8.6-15.2
			c0.5,0.4,8.1,7,11.2,21.4c3.2,14.7-0.8,35.3-0.9,35.9c0.2-0.6,6.7-22.4,4.2-36.6c0.2,0.7,3.5,16.4,1.4,28.7
			c-2.1,12.4-4.4,16.4-4.5,16.5c0.2-0.1,13-1,12.8-17.5c-0.1-12.6-3.7-21.7-4.1-30.2v0c0,0,0.9,4.9,2.1,11.3
			c1,5.4,2.1,11.9,3.1,17.6c1.8,11-6.4,18-8.4,19.4c1.9-1.4,10.2-8.1,9.4-16.6c-0.8-8.9-2.2-14.1-2.4-14.7
			C90,61.2,91.6,66.9,91,72.9z"/>
		
			<linearGradient id="SVGID_00000173150789226587659720000006784007130462527625_" gradientUnits="userSpaceOnUse" x1="6.2808" y1="81.2521" x2="6.2808" y2="44.3275">
			<stop  offset="0" style="stop-color:#FFEADB"/>
			<stop  offset="0.9944" style="stop-color:#D177F4"/>
		</linearGradient>
		<path style="fill:url(#SVGID_00000173150789226587659720000006784007130462527625_);" d="M6.9,81.3c0,0-6.4-5.5-5.4-15.2
			c1-9.7,9.7-21.7,9.7-21.7S9,51.1,6.3,59.4C3.6,67.8,3.6,73.9,6.9,81.3z"/>
		
			<linearGradient id="SVGID_00000068641102538514929530000005993462097256232637_" gradientUnits="userSpaceOnUse" x1="18.7223" y1="91.2647" x2="18.7223" y2="54.5894">
			<stop  offset="5.586590e-03" style="stop-color:#D177F4"/>
			<stop  offset="1" style="stop-color:#FFEADB"/>
		</linearGradient>
		<path style="fill:url(#SVGID_00000068641102538514929530000005993462097256232637_);" d="M21,91c0,0-11.4-11-5.5-36.4
			c0,0-5.1,21.1,8.1,36.7L21,91z"/>
		
			<linearGradient id="SVGID_00000180363917108838646090000006753954446264028296_" gradientUnits="userSpaceOnUse" x1="72.719" y1="38.0904" x2="72.719" y2="16.3049">
			<stop  offset="0" style="stop-color:#FFEADB"/>
			<stop  offset="0.9944" style="stop-color:#D177F4"/>
		</linearGradient>
		<path style="fill:url(#SVGID_00000180363917108838646090000006753954446264028296_);" d="M61,16.6c0,0,6.6,3.8,12.5,10
			c5.9,6.2,11,11.5,11,11.5l-0.2-0.8c0,0-3.9-5.5-10-11.4c-6.1-5.9-12-9.1-12-9.1s7.4,2.3,13.6,7.3s7.7,7.9,7.7,7.9l-0.4-2.5
			c0,0-4.6-5.7-10.4-8.6c-5.8-3-11.5-4.6-11.5-4.6L61,16.6z"/>
		<path class="st19" d="M12.8,20.3c0,0-0.8,1.7,0.4,3c1.2,1.3,6.4-0.4,7.8-0.4c1.5,0,4-1,4-1l-5.3,8.5c0,0,0.5-1.1-0.6-2.3
			c-1.1-1.2-6.1,0.7-8.6-0.4c-2.5-1.1-1.1-4.3-1.1-4.3L12.8,20.3z"/>
		<path class="st19" d="M70,27.2c0,0,3.3,6.1,4.9,11.6c0,0,0.2-1.9,1.7-3.9C78.1,32.9,79,33,79,33l-4.7-5.6L70,27.2z"/>
		<path class="st19" d="M75,26.6l2.2-1.4c0,0,2.2,1.8,3.5,3.3l-1.5,2.6C79.2,31.2,75.7,27.3,75,26.6z"/>
	</g>
</g>
</svg>
