<?xml version="1.0" encoding="utf-8"?>
<!-- Generator: Adobe Illustrator 28.0.0, SVG Export Plug-In . SVG Version: 6.00 Build 0)  -->
<svg version="1.1" id="Lager_1" xmlns="http://www.w3.org/2000/svg" xmlns:xlink="http://www.w3.org/1999/xlink" x="0px" y="0px"
	 viewBox="0 0 91.3 112.6" style="enable-background:new 0 0 91.3 112.6;" xml:space="preserve">
<style type="text/css">
	.st0{fill:url(#SVGID_1_);}
	.st1{opacity:0.6;fill:#D177B8;}
	.st2{fill:url(#SVGID_00000124855081432571137740000012964300262817955748_);}
	.st3{opacity:0.6;fill:url(#SVGID_00000119798126175344657350000006444781556298854317_);}
	.st4{opacity:0.6;fill:url(#SVGID_00000104706153376014006550000002025971651159327386_);}
	.st5{fill:url(#SVGID_00000082367987567688077080000016715140187826505624_);}
	.st6{opacity:0.6;fill:url(#SVGID_00000065760548589060541530000005948532062369534116_);}
	.st7{opacity:0.6;fill:url(#SVGID_00000051347221795164759810000003962142277572299653_);}
	.st8{fill:#DD6B7C;}
	.st9{fill:url(#SVGID_00000102509534757942484540000013774550946271192501_);}
	.st10{opacity:0.6;fill:url(#SVGID_00000042011931957041851600000000392010015034880154_);}
	.st11{opacity:0.6;fill:url(#SVGID_00000054949305527128658380000017454486364668170656_);}
	.st12{fill:url(#SVGID_00000097465890331088191230000009812468016928655269_);}
	.st13{fill:url(#SVGID_00000059276538489791160760000006427371271755497146_);}
	.st14{fill:#A93651;}
	.st15{fill:url(#SVGID_00000111876992469168221870000008384651791735785371_);}
	.st16{fill:url(#SVGID_00000086656409942948117380000006114251570176701358_);}
	.st17{fill:url(#SVGID_00000057861246228953734650000000368453906037542016_);}
	.st18{fill:url(#SVGID_00000066491298579038573910000000403653731750634125_);}
	.st19{fill:#681642;}
	.st20{fill:#AE4151;}
	.st21{fill:url(#SVGID_00000183220912174324978130000015665081968485766034_);}
	.st22{fill:url(#SVGID_00000181089480039648977510000006790117829049074340_);}
</style>
<g>
	<g>
		<g>
			<linearGradient id="SVGID_1_" gradientUnits="userSpaceOnUse" x1="45.5786" y1="112.6089" x2="45.5786" y2="85.6936">
				<stop  offset="0" style="stop-color:#FFB39D"/>
				<stop  offset="0.2251" style="stop-color:#FF9B8E"/>
				<stop  offset="0.4833" style="stop-color:#FF8781"/>
				<stop  offset="0.742" style="stop-color:#FF7B7A"/>
				<stop  offset="1" style="stop-color:#FF7777"/>
			</linearGradient>
			<path class="st0" d="M57.5,103.4c-0.4-2.8,0-17.7,0-17.7l-11.9,0.8l-11.9-0.8c0,0,0.4,14.9,0,17.7c0,0-6.7,7.2-18.2,9.2h30.1
				h30.1C64.2,110.6,57.5,103.4,57.5,103.4z"/>
			<path class="st1" d="M33.8,94.1c0,0,10.4,9,23.5,5.2l0.2-13.7c0,0-6.9,4.9-23.8,0.7L33.8,94.1z"/>
			
				<linearGradient id="SVGID_00000175285135405837439260000002056000436417287299_" gradientUnits="userSpaceOnUse" x1="45.4382" y1="112.611" x2="45.4382" y2="102.7196">
				<stop  offset="0" style="stop-color:#FFAED8"/>
				<stop  offset="1" style="stop-color:#FFC5E0"/>
			</linearGradient>
			<path style="fill:url(#SVGID_00000175285135405837439260000002056000436417287299_);" d="M77.4,112.6H13.5c0,0,11.1-3.5,13.1-5.3
				c0.5-0.4,0.9-0.9,1.4-1.4c0.7-0.8,1.3-1.7,1.7-2.3l0,0c0.3-0.5,0.5-0.8,0.6-0.8c0.2-0.1,3.1,0.6,3.3,0.7l0,0l-1.5,1.4
				c0,0,3.4,5.2,13.4,5.2c6.7,0,10.3-2.4,11.9-4v0c0.8-0.8,1.2-1.4,1.2-1.4l-1.2-1.1l3.4-0.7c0,0,0.1,0.8,0.6,1.8
				c0.2,0.6,0.6,1.2,1,1.8c0.4,0.5,0.8,1,1.4,1.4C66.2,109.3,77.4,112.6,77.4,112.6z"/>
			<path class="st1" d="M60.9,102.7l-3.4,3.2v0c0.8-0.8,1.2-1.4,1.2-1.4l-1.2-1.1L60.9,102.7z"/>
			<path class="st1" d="M33.7,103.4l-1.5,1.4l-1.8-2.1C30.5,102.7,33.5,103.4,33.7,103.4L33.7,103.4z"/>
			
				<linearGradient id="SVGID_00000106120134375659657190000018217717081740801200_" gradientUnits="userSpaceOnUse" x1="27.9754" y1="108.0816" x2="41.4036" y2="108.0816">
				<stop  offset="5.586590e-03" style="stop-color:#D177F4"/>
				<stop  offset="1" style="stop-color:#FFEADB"/>
			</linearGradient>
			<path style="opacity:0.6;fill:url(#SVGID_00000106120134375659657190000018217717081740801200_);" d="M29.7,103.6
				c0,0-0.3,3,3.9,6.3c3.2,2.5,7.7,2.8,7.7,2.8s-8-0.2-13.4-6.7L29.7,103.6z"/>
			
				<linearGradient id="SVGID_00000160868853321668958000000008645041996247270550_" gradientUnits="userSpaceOnUse" x1="53.9052" y1="108.0256" x2="62.4446" y2="108.0256">
				<stop  offset="0" style="stop-color:#FFEADB"/>
				<stop  offset="0.9944" style="stop-color:#D177F4"/>
			</linearGradient>
			<path style="opacity:0.6;fill:url(#SVGID_00000160868853321668958000000008645041996247270550_);" d="M61.4,104.5
				c0,0-2.4,5-7.5,7.1c0,0,6.5-1.3,8.5-5.3L61.4,104.5z"/>
		</g>
		<g>
			<g>
				
					<linearGradient id="SVGID_00000021808258367495696810000008536629971642541714_" gradientUnits="userSpaceOnUse" x1="79.2902" y1="68.1994" x2="79.2902" y2="44.711">
					<stop  offset="0" style="stop-color:#FFB39D"/>
					<stop  offset="0.2251" style="stop-color:#FF9B8E"/>
					<stop  offset="0.4833" style="stop-color:#FF8781"/>
					<stop  offset="0.742" style="stop-color:#FF7B7A"/>
					<stop  offset="1" style="stop-color:#FF7777"/>
				</linearGradient>
				<path style="fill:url(#SVGID_00000021808258367495696810000008536629971642541714_);" d="M84.7,55.5c-0.2,0.8-0.3,1.5-0.5,2.1
					c0,0,0,0,0,0c-1.4,4.4-3.4,5.4-4.3,7.4c-0.7,1.7-3.6,5.2-6.4,1.6c0,0,0,0,0,0s1.3-14.6,2.4-17.2c0,0,1.6-4,4.3-4.6
					C83.8,44,86.1,48.7,84.7,55.5z"/>
				
					<linearGradient id="SVGID_00000108273999004333058040000003031704537113568900_" gradientUnits="userSpaceOnUse" x1="79.2962" y1="64.1784" x2="79.2962" y2="48.8646">
					<stop  offset="0" style="stop-color:#FFEADB"/>
					<stop  offset="0.9944" style="stop-color:#D177F4"/>
				</linearGradient>
				<path style="opacity:0.6;fill:url(#SVGID_00000108273999004333058040000003031704537113568900_);" d="M74.5,57.6
					c0,0,5.6-8.1,8.3-8.7c2.7-0.5,1.3,6.4,0.8,8.7c-0.5,2.3-1.3,3.7-1.3,3.7s0.7-2.7,0.8-4.9c0.2-3.2-0.8-5.9-1.9-5.6
					c-1.1,0.3-2.6,4.2-2.7,4.7c-0.1,0.5,0.7,1.3,0.7,3.7c0,2.5-1.2,5.1-1.9,5.1c-0.6,0-0.4-2-0.4-4.3c0-2.3-1.8-1.8-2.6-0.4
					L74.5,57.6z"/>
				
					<linearGradient id="SVGID_00000171714249505732395170000004398804113056941702_" gradientUnits="userSpaceOnUse" x1="76.5333" y1="62.4194" x2="76.5333" y2="54.9124">
					<stop  offset="0" style="stop-color:#FFEADB"/>
					<stop  offset="0.9944" style="stop-color:#D177F4"/>
				</linearGradient>
				<path style="opacity:0.6;fill:url(#SVGID_00000171714249505732395170000004398804113056941702_);" d="M74.2,59.5
					c0,0,1.4-2.2,2.3-1.2c0.9,1,0.2,3.7,0.9,4.1c0.7,0.3,1.6-1.9,1.4-3.9c-0.2-2-1-3.9-2.1-3.5l-2.2,2.6L74.2,59.5z"/>
				<path class="st8" d="M84.1,57.6c-1.4,4.4-3.4,5.4-4.3,7.4c-0.7,1.7-3.6,5.2-6.4,1.6c0.2,0.1,1.8,1.5,3.4,0.9
					c1.7-0.6,2.3-2.3,3-3.5C80.7,62.7,82.6,61.9,84.1,57.6z"/>
			</g>
			<g>
				
					<linearGradient id="SVGID_00000096055378339763106790000008085911564036633746_" gradientUnits="userSpaceOnUse" x1="-286.3329" y1="68.1994" x2="-286.3329" y2="44.711" gradientTransform="matrix(-1 0 0 1 -275.5645 0)">
					<stop  offset="0" style="stop-color:#FFB39D"/>
					<stop  offset="0.2251" style="stop-color:#FF9B8E"/>
					<stop  offset="0.4833" style="stop-color:#FF8781"/>
					<stop  offset="0.742" style="stop-color:#FF7B7A"/>
					<stop  offset="1" style="stop-color:#FF7777"/>
				</linearGradient>
				<path style="fill:url(#SVGID_00000096055378339763106790000008085911564036633746_);" d="M5.4,55.5c0.2,0.8,0.3,1.5,0.5,2.1
					c0,0,0,0,0,0c1.4,4.4,3.4,5.4,4.3,7.4c0.7,1.7,3.6,5.2,6.4,1.6c0,0,0,0,0,0S15.2,52,14.2,49.4c0,0-1.6-4-4.3-4.6
					C6.2,44,4,48.7,5.4,55.5z"/>
				
					<linearGradient id="SVGID_00000034067382367123956110000002796828817081941914_" gradientUnits="userSpaceOnUse" x1="-286.327" y1="64.1784" x2="-286.327" y2="48.8646" gradientTransform="matrix(-1 0 0 1 -275.5645 0)">
					<stop  offset="0" style="stop-color:#FFEADB"/>
					<stop  offset="0.9944" style="stop-color:#D177F4"/>
				</linearGradient>
				<path style="opacity:0.6;fill:url(#SVGID_00000034067382367123956110000002796828817081941914_);" d="M15.6,57.6
					c0,0-5.6-8.1-8.3-8.7c-2.7-0.5-1.3,6.4-0.8,8.7c0.5,2.3,1.3,3.7,1.3,3.7S7.2,58.5,7,56.3c-0.2-3.2,0.8-5.9,1.9-5.6
					c1.1,0.3,2.6,4.2,2.7,4.7c0.1,0.5-0.7,1.3-0.7,3.7c0,2.5,1.2,5.1,1.9,5.1c0.6,0,0.4-2,0.4-4.3c0-2.3,1.8-1.8,2.6-0.4L15.6,57.6z
					"/>
				
					<linearGradient id="SVGID_00000110432437263843374260000015314438045300181675_" gradientUnits="userSpaceOnUse" x1="-289.0899" y1="62.4194" x2="-289.0899" y2="54.9124" gradientTransform="matrix(-1 0 0 1 -275.5645 0)">
					<stop  offset="0" style="stop-color:#FFEADB"/>
					<stop  offset="0.9944" style="stop-color:#D177F4"/>
				</linearGradient>
				<path style="opacity:0.6;fill:url(#SVGID_00000110432437263843374260000015314438045300181675_);" d="M15.8,59.5
					c0,0-1.4-2.2-2.3-1.2c-0.9,1-0.2,3.7-0.9,4.1c-0.7,0.3-1.6-1.9-1.4-3.9c0.2-2,1-3.9,2.1-3.5l2.2,2.6L15.8,59.5z"/>
				<path class="st8" d="M5.9,57.6c1.4,4.4,3.4,5.4,4.3,7.4c0.7,1.7,3.6,5.2,6.4,1.6c-0.2,0.1-1.8,1.5-3.4,0.9
					c-1.7-0.6-2.3-2.3-3-3.5C9.4,62.7,7.5,61.9,5.9,57.6z"/>
			</g>
			
				<linearGradient id="SVGID_00000163073884919488971360000009627730938293002914_" gradientUnits="userSpaceOnUse" x1="45.0187" y1="88.8661" x2="45.0187" y2="11.2069">
				<stop  offset="0" style="stop-color:#FFAA96"/>
				<stop  offset="0.4274" style="stop-color:#F9AB99"/>
				<stop  offset="0.5507" style="stop-color:#FBA38F"/>
				<stop  offset="0.7754" style="stop-color:#FE9983"/>
				<stop  offset="1" style="stop-color:#FF967F"/>
			</linearGradient>
			<path style="fill:url(#SVGID_00000163073884919488971360000009627730938293002914_);" d="M74.8,61.4c0,0.1,0,0.2-0.1,0.4
				C74,65.7,73.2,69,72.6,71C70.2,78.8,57.7,88.9,45,88.9S19.9,78.8,17.4,71c-0.3-0.9-0.6-2.1-0.9-3.5c-1.1-4.9-2.4-12.4-3.2-19.7
				c0,0,0,0,0,0c-0.9-8.3-1-16.4,0.5-20.3c1.1-2.7,3.7-5.9,7.5-8.7v0c5.7-4.2,14-7.5,23.7-7.5c16.3,0,28.6,9.5,31.2,16.2
				C78.6,33.5,76.8,50,74.8,61.4z"/>
			<path class="st1" d="M74.7,61.8C74,65.7,73.2,69,72.6,71C70.2,78.8,57.7,88.9,45,88.9S19.9,78.8,17.4,71
				c-0.3-0.9-0.6-2.1-0.9-3.5l0-0.9c0,0,0.5,4.6,4.3,9.7c3.9,5.1,14.2,11.3,24.1,11.3c10,0,20.7-7.5,24.3-11.8
				C72.5,72,74.3,63.8,74.7,61.8z"/>
		</g>
	</g>
	<g>
		
			<linearGradient id="SVGID_00000178893489182734323500000011064174876444088201_" gradientUnits="userSpaceOnUse" x1="11.8043" y1="23.9258" x2="11.8043" y2="0.9217">
			<stop  offset="0" style="stop-color:#77254B"/>
			<stop  offset="1" style="stop-color:#8E2542"/>
		</linearGradient>
		<path style="fill:url(#SVGID_00000178893489182734323500000011064174876444088201_);" d="M23.6,10c0,0-1.9-8.8-10.9-9
			c-9-0.2-8.5,11.7-8.5,11.7l1.6-1c0,0-0.6-8,4.4-9c5-1,9.1,1.7,9.1,1.7S6.6,0,2,6.4c-4.6,6.4-0.8,18.8,8.1,17.4
			C19,22.4,23.6,10,23.6,10z"/>
		<path class="st14" d="M0,13.6c0,0,10.7-10,21.5-2.9l0.9-0.3c0,0-10.2-7.8-22.2,0.5L0,13.6z"/>
		<path class="st14" d="M1.6,7.1c0,0,12.2-6.1,21.3,0.7L22,6.2c0,0-4.2-4.8-20,0.3L1.6,7.1z"/>
		<path class="st14" d="M4.2,22.5c0,0-0.2-13,15.8-11.3l-0.6,0.3c0,0-15.1-0.9-14.1,11.7L4.2,22.5z"/>
		
			<linearGradient id="SVGID_00000005241623952680494490000015347437470362678443_" gradientUnits="userSpaceOnUse" x1="79.3772" y1="21.3973" x2="79.3772" y2="0">
			<stop  offset="0" style="stop-color:#77254B"/>
			<stop  offset="1" style="stop-color:#8E2542"/>
		</linearGradient>
		<path style="fill:url(#SVGID_00000005241623952680494490000015347437470362678443_);" d="M67.5,10.6c0,0,1.3-11.3,11.5-10.6
			c10.2,0.7,7.6,14.3,7.6,14.3s0.6-11-5.5-13.1C75-0.8,71.8,3,71.8,3s6.5-3.9,14.7,0.6s5.6,18.5-6.8,17.8L67.5,10.6z"/>
		
			<linearGradient id="SVGID_00000023967726713675203680000000799438871695422362_" gradientUnits="userSpaceOnUse" x1="45.3037" y1="52.0802" x2="45.3037" y2="7.0756">
			<stop  offset="0" style="stop-color:#92314B"/>
			<stop  offset="1" style="stop-color:#9A2542"/>
		</linearGradient>
		<path style="fill:url(#SVGID_00000023967726713675203680000000799438871695422362_);" d="M76.2,52.1c0,0-1.7-10.6-2-16.6
			C74,29.4,69.7,24,66.2,20.9c-0.8-0.7-1.6-1.3-2.4-1.8c-0.1,0-0.1-0.1-0.2-0.1c-0.1,0-0.1-0.1-0.1-0.1c0,0,0,0,0,0
			c-3-1.8-6.1-2.7-6.1-2.7S35.5,15.3,28.2,18C27,18.4,26,19,25,19.7c0,0,0,0,0,0c-4.8,3.4-6.3,9.4-7.3,12.3
			c-1.2,3.5,0.5,7.5-4.2,18.5c0,0-2.5-6.4-3.5-13.1c-1-6.4-0.8-17.2,3.5-22l0,0c0.2-0.3,0.4-0.5,0.7-0.7c7-6.2,23.5-7.5,31.4-7.5
			c7.8,0,17.1-0.1,27.2,5.1c1.9,1,3.4,2.5,4.6,4.3C82.9,24.9,82,41.1,76.2,52.1z"/>
		
			<linearGradient id="SVGID_00000010276295494972025130000004403113041500761222_" gradientUnits="userSpaceOnUse" x1="10.4352" y1="89.5652" x2="10.4352" y2="48.8645">
			<stop  offset="0" style="stop-color:#92314B"/>
			<stop  offset="1" style="stop-color:#9A2542"/>
		</linearGradient>
		<path style="fill:url(#SVGID_00000010276295494972025130000004403113041500761222_);" d="M13.5,50.5c0,0-2.4,13-6,23.1
			c-3.6,10.1,6.6,16,6.6,16s-7.7-7-5.8-15.8c1.9-8.8,5.9-18.6,5.8-24.9L13.5,50.5z"/>
		
			<linearGradient id="SVGID_00000078033824500805509040000006515601030890759048_" gradientUnits="userSpaceOnUse" x1="79.0822" y1="87.729" x2="79.0822" y2="51.4236">
			<stop  offset="0" style="stop-color:#92314B"/>
			<stop  offset="1" style="stop-color:#9A2542"/>
		</linearGradient>
		<path style="fill:url(#SVGID_00000078033824500805509040000006515601030890759048_);" d="M76.2,52.1c0,0,1.1,3.7,3.6,16.1
			c2.5,12.5-2.5,19.5-2.5,19.5s4.8-5.3,4.6-13.6c-0.2-8.3-4.1-16.6-5.4-22.7L76.2,52.1z"/>
		<path class="st19" d="M42.3,16.2c0,0-2.6-4.4-4.5-5c-1.9-0.6-13.8,8.5-9.2,26.1c0,0-0.6-16.2,8.8-22.8c0,0,1.2,0.5,2.7,1.7
			C40.1,16.3,42,16.4,42.3,16.2z"/>
		<path class="st14" d="M63.4,18.9c0,0,8.2-0.1,12.4-4.5l1.8,2.3c0,0-1.7,4.5-11.3,4.2L63.4,18.9z"/>
		<path class="st14" d="M61,17.6c0,0,4.6-4.5,9.8-6.5l-1.2-0.5c0,0-4.6,1.6-9.1,6.7L61,17.6z"/>
		<path class="st14" d="M26.6,18.7c0,0-3.9-2.6-7.6-7L18.2,12c0,0,1.5,4.6,7.9,6.9L26.6,18.7z"/>
		<path class="st14" d="M19.3,27.5c0,0-5.3-0.9-8.2-7.8l-0.9,3.5c0,0,3.2,6.6,7.9,7.9L19.3,27.5z"/>
		<path class="st14" d="M49,16c0,0,9.2-7,16.6-6.8l0.9,0.3c0,0-7.6-0.3-16.3,6.5H49z"/>
		<path class="st14" d="M20,11.2c0,0,11.3,0.7,18.4,5.2l0.6,0c0,0-5.2-5.1-18.1-5.5L20,11.2z"/>
		<path class="st20" d="M28.5,37.3c0,0,0.2-16.5,11-24.8L35.9,9C35.9,9,23.2,16.1,28.5,37.3z"/>
		<path class="st1" d="M25,19.7c-4.8,3.4-6.3,9.4-7.3,12.3c-1.2,3.5,0.5,7.5-4.2,18.5c0,0-2.5-6.4-3.5-13.1c-1-6.4-0.8-17.2,3.5-22
			l0,0c0,0,3.2,6.2,5,6.7C20.2,22.5,24.8,19.8,25,19.7z"/>
		<path class="st1" d="M76.2,52.1c0,0-1.7-10.6-2-16.6C74,29.4,69.7,24,66.2,20.9c-0.8-0.7-1.6-1.3-2.4-1.8c1,0.6,4.2,2.2,8.4,2.6
			C77.3,22.1,77,16,77,16l0.4,0.4C82.9,24.9,82,41.1,76.2,52.1z"/>
		<path class="st14" d="M76.8,1.5c0,0,13,7.8,8.3,19.1l1-0.5c0,0,4.1-13.2-8.6-18.6H76.8z"/>
		<path class="st14" d="M75.1,1.7c0,0,7.5,5.2,6.6,19.6l1.1-0.1c0,0,0.1-15.2-7.2-19.5H75.1z"/>
		<path class="st14" d="M87.4,4.1c0,0,3.1,8.5-0.4,15.6c0,0,1.9-0.9,3.3-3.6c0,0,1.1-4.9,0.3-8.3C90.4,7.8,88.9,5,87.4,4.1z"/>
		
			<linearGradient id="SVGID_00000104689489231252494180000007169431948985100934_" gradientUnits="userSpaceOnUse" x1="73.6359" y1="21.371" x2="73.6359" y2="9.8953">
			<stop  offset="0" style="stop-color:#FFAED8"/>
			<stop  offset="1" style="stop-color:#FFC5E0"/>
		</linearGradient>
		<path style="fill:url(#SVGID_00000104689489231252494180000007169431948985100934_);" d="M67.6,9.9c0,0,10.7-0.8,12,11.5
			C79.7,21.4,78,12.3,67.6,9.9z"/>
		
			<linearGradient id="SVGID_00000142172586198901890310000005407195249824938918_" gradientUnits="userSpaceOnUse" x1="16.7764" y1="23.8161" x2="16.7764" y2="9.9551">
			<stop  offset="0" style="stop-color:#FFAED8"/>
			<stop  offset="1" style="stop-color:#FFC5E0"/>
		</linearGradient>
		<path style="fill:url(#SVGID_00000142172586198901890310000005407195249824938918_);" d="M23.6,10c0,0-10.2,2.3-13.6,13.9
			C10,23.8,7.9,12.6,23.6,10z"/>
	</g>
</g>
</svg>
