<?xml version="1.0" encoding="utf-8"?>
<!-- Generator: Adobe Illustrator 28.0.0, SVG Export Plug-In . SVG Version: 6.00 Build 0)  -->
<svg version="1.1" id="Lager_1" xmlns="http://www.w3.org/2000/svg" xmlns:xlink="http://www.w3.org/1999/xlink" x="0px" y="0px"
	 viewBox="0 0 139 55" style="enable-background:new 0 0 139 55;" xml:space="preserve">
<style type="text/css">
	.st0{opacity:0.6;fill:url(#SVGID_1_);enable-background:new    ;}
	.st1{opacity:0.6;fill:url(#SVGID_00000031171351209385284330000010173365689791060150_);enable-background:new    ;}
</style>
<g>
	
		<linearGradient id="SVGID_1_" gradientUnits="userSpaceOnUse" x1="112.5367" y1="2.5452" x2="112.5367" y2="57.5533" gradientTransform="matrix(1 0 0 -1 0 55.89)">
		<stop  offset="1.016061e-02" style="stop-color:#FFEADB;stop-opacity:0"/>
		<stop  offset="0.1905" style="stop-color:#F9DBDE"/>
		<stop  offset="0.3361" style="stop-color:#ECB9E5"/>
		<stop  offset="0.5888" style="stop-color:#D177F4"/>
		<stop  offset="0.6456" style="stop-color:#D481F5;stop-opacity:0.862"/>
		<stop  offset="0.743" style="stop-color:#DE9DF7;stop-opacity:0.625"/>
		<stop  offset="0.8694" style="stop-color:#EDCAFB;stop-opacity:0.3177"/>
		<stop  offset="1" style="stop-color:#FFFFFF;stop-opacity:0"/>
	</linearGradient>
	<path class="st0" d="M86.1,2.4c0,0-1,41.7,5.2,48.3s24.7,5.6,36.8-2.4C140.2,40.4,139,11,139,11S128.1-1.5,109.6,0.2
		C91,1.9,86.1,2.4,86.1,2.4z"/>
	
		<linearGradient id="SVGID_00000086673914259071351960000010283292111721375649_" gradientUnits="userSpaceOnUse" x1="-242.7364" y1="0.8409" x2="-242.7364" y2="55.8489" gradientTransform="matrix(-1 0 0 -1 -216.2731 55.89)">
		<stop  offset="1.016061e-02" style="stop-color:#FFEADB;stop-opacity:0"/>
		<stop  offset="0.1905" style="stop-color:#F9DBDE"/>
		<stop  offset="0.3361" style="stop-color:#ECB9E5"/>
		<stop  offset="0.5888" style="stop-color:#D177F4"/>
		<stop  offset="0.6456" style="stop-color:#D481F5;stop-opacity:0.862"/>
		<stop  offset="0.743" style="stop-color:#DE9DF7;stop-opacity:0.625"/>
		<stop  offset="0.8694" style="stop-color:#EDCAFB;stop-opacity:0.3177"/>
		<stop  offset="1" style="stop-color:#FFFFFF;stop-opacity:0"/>
	</linearGradient>
	<path style="opacity:0.6;fill:url(#SVGID_00000086673914259071351960000010283292111721375649_);enable-background:new    ;" d="
		M52.9,2.4c0,0,1,41.7-5.2,48.3S23,56.3,10.9,48.3C-1.2,40.4,0,11,0,11S10.8-1.5,29.4,0.2S52.9,2.4,52.9,2.4z"/>
</g>
</svg>
